<?xml version="1.0" encoding="utf-8"?>
<svg xmlns="http://www.w3.org/2000/svg" width="480px" height="480px" viewBox="0 0 480 480">
  <path d="M 239.482 148.832 C 222.614 148.832 205.965 150.479 189.5 153.882 C 172.961 157.212 157.044 162.151 141.567 168.592 C 126.089 175.104 111.307 183.044 97.256 192.41 C 83.206 201.778 70.217 212.499 58.325 224.501 C 52.397 230.465 47.091 236.649 42.445 243.162 C 37.724 249.601 32.711 256.005 27.406 262.261 C 25.54 264.42 23.748 266.067 22.028 267.164 C 20.307 268.262 17.966 268.811 15.002 268.811 C 10.795 268.811 7.208 267.385 4.318 264.457 C 1.427 261.567 0 258.054 0 253.808 C 0 250.845 0.879 248.064 2.598 245.357 C 14.892 225.672 29.894 208.035 47.458 192.41 C 65.057 176.787 84.23 163.505 105.013 152.564 C 125.761 141.624 147.567 133.281 170.51 127.501 C 193.342 121.719 216.394 118.829 239.482 118.829 C 262.461 118.829 285.439 121.719 308.418 127.501 C 331.323 133.281 353.203 141.624 373.914 152.564 C 394.624 163.505 413.76 176.787 431.323 192.41 C 448.923 208.035 463.925 225.672 476.439 245.357 C 478.122 248.064 479 250.845 479 253.808 C 479 258.054 477.573 261.567 474.683 264.457 C 471.792 267.385 468.243 268.811 463.999 268.811 C 461.327 268.811 459.022 268.226 457.082 267.054 C 455.18 265.884 453.313 264.274 451.594 262.261 C 449.911 260.066 448.264 257.834 446.801 255.566 C 445.301 253.333 443.727 251.065 442.008 248.869 C 438.678 244.515 435.275 240.344 431.689 236.356 C 428.067 232.368 424.408 228.415 420.676 224.501 C 408.637 212.499 395.648 201.778 381.635 192.41 C 367.657 183.044 352.984 175.104 337.58 168.592 C 322.212 162.151 306.222 157.212 289.647 153.882 C 273.071 150.479 256.386 148.832 239.482 148.832 Z M 239.482 238.844 C 227.919 238.844 216.431 240.052 205.051 242.576 C 193.634 245.1 182.694 248.724 172.156 253.443 C 161.581 258.2 151.556 264.055 142.152 270.897 C 132.675 277.813 124.113 285.496 116.466 294.132 C 112.697 298.339 109.331 302.804 106.294 307.45 C 103.258 312.169 100.001 316.781 96.525 321.281 C 94.696 323.623 92.83 325.489 91.072 326.806 C 89.242 328.161 86.791 328.819 83.681 328.819 C 79.62 328.819 76.071 327.318 73.107 324.355 C 70.143 321.392 68.679 317.878 68.679 313.817 C 68.679 311.292 69.266 308.804 70.509 306.316 C 78.486 291.424 88.657 278.031 101.025 265.994 C 113.32 253.992 127.041 243.71 142.005 235.295 C 157.044 226.879 172.852 220.329 189.5 215.719 C 206.111 211.108 222.796 208.804 239.482 208.804 C 256.058 208.804 272.705 211.108 289.427 215.719 C 306.149 220.329 321.992 226.879 336.995 235.295 C 351.996 243.71 365.68 253.992 378.012 265.994 C 390.343 278.031 400.478 291.424 408.491 306.316 C 409.699 308.804 410.322 311.292 410.322 313.817 C 410.322 317.878 408.858 321.392 405.893 324.355 C 402.929 327.318 399.417 328.819 395.355 328.819 C 392.209 328.819 389.758 328.161 387.964 326.806 C 386.171 325.489 384.341 323.623 382.475 321.281 C 378.999 316.781 375.778 312.169 372.743 307.45 C 369.669 302.804 366.303 298.339 362.534 294.132 C 354.887 285.496 346.325 277.813 336.848 270.897 C 327.445 264.055 317.419 258.2 306.881 253.443 C 296.343 248.724 285.366 245.1 273.95 242.576 C 262.533 240.052 251.081 238.844 239.482 238.844 Z M 239.482 328.819 C 230.774 328.819 222.431 330.027 214.418 332.442 C 206.441 334.856 198.757 338.332 191.219 342.869 C 187.011 345.541 183.39 348.175 180.316 350.846 C 177.316 353.481 174.534 356.298 172.156 359.262 C 169.741 362.226 167.436 365.409 165.241 368.738 C 163.045 372.104 160.666 375.91 158.215 380.118 C 156.642 382.789 154.739 384.875 152.543 386.448 C 150.385 388.021 147.713 388.789 144.604 388.789 C 140.359 388.789 136.847 387.326 133.956 384.362 C 131.029 381.399 129.602 377.813 129.602 373.568 C 129.602 371.556 130.041 369.433 131.029 367.238 C 135.53 357.212 141.677 348.029 149.506 339.613 C 157.337 331.161 166.046 323.916 175.779 317.913 C 185.439 311.914 195.794 307.195 206.697 303.828 C 217.638 300.498 228.578 298.814 239.482 298.814 C 250.788 298.814 261.839 300.461 272.816 303.718 C 283.719 307.012 294.001 311.621 303.587 317.55 C 313.211 323.476 321.846 330.685 329.494 339.101 C 337.177 347.553 343.324 356.921 348.009 367.238 C 348.958 369.433 349.398 371.556 349.398 373.568 C 349.398 377.593 347.934 381.178 344.971 384.217 C 342.007 387.253 338.495 388.789 334.433 388.789 C 331.287 388.789 328.615 388.021 326.457 386.448 C 324.261 384.875 322.358 382.789 320.786 380.118 C 318.334 375.91 315.992 372.104 313.796 368.738 C 311.563 365.409 309.259 362.226 306.77 359.262 C 304.246 356.298 301.502 353.481 298.465 350.846 C 295.392 348.175 291.769 345.541 287.524 342.869 C 280.207 338.332 272.522 334.856 264.472 332.442 C 256.422 330.027 248.117 328.819 239.482 328.819 Z M 202.051 418.794 C 202.051 413.598 203.038 408.805 205.051 404.268 C 207.1 399.731 209.77 395.779 213.101 392.412 C 216.539 389.083 220.455 386.375 224.956 384.362 C 229.493 382.314 234.359 381.289 239.482 381.289 C 244.641 381.289 249.507 382.314 254.044 384.362 C 258.546 386.375 262.496 389.083 265.9 392.412 C 269.23 395.779 271.937 399.731 273.95 404.268 C 275.999 408.805 276.986 413.598 276.986 418.794 C 276.986 423.954 275.999 428.82 273.95 433.32 C 271.937 437.857 269.23 441.809 265.9 445.138 C 262.496 448.541 258.546 451.213 254.044 453.225 C 249.507 455.274 244.641 456.299 239.482 456.299 C 234.359 456.299 229.493 455.274 224.956 453.225 C 220.455 451.213 216.539 448.541 213.101 445.138 C 209.77 441.809 207.1 437.857 205.051 433.32 C 203.038 428.82 202.051 423.954 202.051 418.794 Z" style="fill: rgb(255, 255, 255);"/>
  <path d="M 223.379 0 L 208.89 8.343 L 208.927 8.379 L 225.428 37.285 L 192.169 37.432 L 192.096 37.432 L 192.096 54.227 L 192.169 54.227 L 225.428 54.409 L 208.927 83.316 L 208.89 83.352 L 223.379 91.694 L 223.452 91.657 L 224.441 89.938 L 240.174 62.935 L 257.005 91.657 L 257.005 91.694 L 271.495 83.352 L 271.495 83.316 L 270.031 80.828 L 254.957 54.409 L 288.29 54.227 L 288.363 54.227 L 288.363 37.432 L 288.29 37.432 L 254.957 37.285 L 270.031 10.868 L 271.495 8.379 L 271.495 8.343 L 257.005 0 L 257.005 0.037 L 240.174 28.76 L 224.441 1.756 L 223.452 0.037 L 223.379 0 Z" color="#000000" color-rendering="auto" dominant-baseline="auto" image-rendering="auto" shape-rendering="auto" solid-color="#000000" style="font-feature-settings: normal; font-variant-alternates: normal; font-variant-caps: normal; font-variant-ligatures: normal; font-variant-numeric: normal; font-variant-position: normal; isolation: auto; mix-blend-mode: normal; text-decoration-color: rgb(0, 0, 0); text-decoration-line: none; text-decoration-style: solid; text-indent: 0px; text-orientation: mixed; text-transform: none; white-space: normal; fill: rgb(255, 255, 255); transform-box: fill-box; transform-origin: 50% 50%;"/>
</svg>